<?xml version="1.0" encoding="UTF-8" standalone="no"?>
<!-- Created with Inkscape (http://www.inkscape.org/) -->

<svg
   xmlns:dc="http://purl.org/dc/elements/1.1/"
   xmlns:cc="http://creativecommons.org/ns#"
   xmlns:rdf="http://www.w3.org/1999/02/22-rdf-syntax-ns#"
   xmlns:svg="http://www.w3.org/2000/svg"
   xmlns="http://www.w3.org/2000/svg"
   xmlns:sodipodi="http://sodipodi.sourceforge.net/DTD/sodipodi-0.dtd"
   xmlns:inkscape="http://www.inkscape.org/namespaces/inkscape"
   width="744.09448819"
   height="1052.3622047"
   id="svg2"
   version="1.1"
   inkscape:version="0.48.2 r9819"
   sodipodi:docname="Nowy dokument 1">
  <defs
     id="defs4" />
  <sodipodi:namedview
     id="base"
     pagecolor="#ffffff"
     bordercolor="#666666"
     borderopacity="1.0"
     inkscape:pageopacity="0.0"
     inkscape:pageshadow="2"
     inkscape:zoom="0.49497475"
     inkscape:cx="373.6466"
     inkscape:cy="679.78273"
     inkscape:document-units="px"
     inkscape:current-layer="layer1"
     showgrid="false"
     inkscape:window-width="1366"
     inkscape:window-height="706"
     inkscape:window-x="-8"
     inkscape:window-y="-8"
     inkscape:window-maximized="1" />
  <metadata
     id="metadata7">
    <rdf:RDF>
      <cc:Work
         rdf:about="">
        <dc:format>image/svg+xml</dc:format>
        <dc:type
           rdf:resource="http://purl.org/dc/dcmitype/StillImage" />
        <dc:title></dc:title>
      </cc:Work>
    </rdf:RDF>
  </metadata>
  <g
     inkscape:label="Layer 1"
     inkscape:groupmode="layer"
     id="layer1">
    <path
       sodipodi:type="star"
       style="fill:#e6f4e6;fill-opacity:1;fill-rule:nonzero;stroke:none"
       id="path2985"
       sodipodi:sides="13"
       sodipodi:cx="317.14285"
       sodipodi:cy="495.21933"
       sodipodi:r1="199.5098"
       sodipodi:r2="259.10364"
       sodipodi:arg1="0.84781697"
       sodipodi:arg2="1.0894779"
       inkscape:flatsided="false"
       inkscape:rounded="0.72"
       inkscape:randomized="0"
       d="m 449.14285,644.81933 c -43.71279,38.57011 39.62458,53.07748 -12.04843,80.06566 -51.67302,26.98819 -15.96377,-49.69578 -72.59396,-35.85798 -56.63018,13.83779 10.41949,65.41224 -47.87673,65.29544 -58.29622,-0.1168 8.95957,-51.42216 -47.61472,-65.48677 -56.57428,-14.0646 -21.17258,62.76184 -72.73704,35.56682 -51.56446,-27.19503 31.83038,-41.36834 -11.72752,-80.11331 -43.55789,-38.74497 -47.91428,45.73345 -80.93418,-2.30974 -33.019901,-48.0432 47.40923,-21.83753 26.84631,-76.38687 -20.56291,-54.54932 -63.679381,18.22809 -70.590264,-39.65715 -6.910885,-57.88526 52.127194,2.69598 59.269974,-55.16112 7.14278,-57.85709 -64.856311,-13.45311 -44.074979,-67.9196 20.781336,-54.46649 44.903449,26.6119 78.115599,-21.29861 33.21215,-47.91049 -51.17544,-42.05236 -7.46264,-80.62248 43.7128,-38.57012 27.39287,44.43134 79.06589,17.44315 51.67301,-26.98818 -25.77089,-61.01793 30.85929,-74.85573 56.6302,-13.83779 3.60691,52.0721 61.90313,52.18889 58.29622,0.1168 5.53746,-66.00502 62.11174,-51.94042 56.57429,14.06461 -21.00535,47.78376 30.55912,74.97879 51.56445,27.19502 35.57724,-55.87117 79.13513,-17.1262 43.55789,38.74497 -40.80554,32.54875 -7.78563,80.59195 33.0199,48.04319 57.46671,-32.93789 78.02962,21.61143 20.56291,54.54934 -51.25766,9.85721 -44.34678,67.74247 6.91089,57.88524 66.19124,-2.45895 59.04846,55.39814 -7.14278,57.8571 -49.96727,-15.0925 -70.74861,39.374 -20.78133,54.46649 59.75216,28.58332 26.54002,76.49381 -33.21216,47.9105 -37.23,-36.5847 -80.9428,1.98543 z"
       inkscape:transform-center-x="7.5679344"
       inkscape:transform-center-y="-17.433892" />
    <path
       sodipodi:type="arc"
       style="fill:#000000;fill-opacity:1;fill-rule:nonzero;stroke:none"
       id="path2989"
       sodipodi:cx="442.85715"
       sodipodi:cy="502.36218"
       sodipodi:rx="12.142858"
       sodipodi:ry="12.142858"
       d="m 455,502.36218 a 12.142858,12.142858 0 1 1 -24.28571,0 12.142858,12.142858 0 1 1 24.28571,0 z"
       transform="matrix(0.99836454,-0.05716856,0.05716856,0.99836454,-4.9580084,22.617482)" />
    <path
       transform="matrix(0.99836454,-0.05716856,0.05716856,0.99836454,-6.7866364,65.649539)"
       sodipodi:type="arc"
       style="fill:#000000;fill-opacity:1;fill-rule:nonzero;stroke:none"
       id="path2989-1"
       sodipodi:cx="442.85715"
       sodipodi:cy="502.36218"
       sodipodi:rx="12.142858"
       sodipodi:ry="12.142858"
       d="m 455,502.36218 a 12.142858,12.142858 0 1 1 -24.28571,0 12.142858,12.142858 0 1 1 24.28571,0 z" />
    <path
       transform="matrix(0.99836454,-0.05716856,0.05716856,0.99836454,-24.467186,106.7275)"
       sodipodi:type="arc"
       style="fill:#000000;fill-opacity:1;fill-rule:nonzero;stroke:none"
       id="path2989-7"
       sodipodi:cx="442.85715"
       sodipodi:cy="502.36218"
       sodipodi:rx="12.142858"
       sodipodi:ry="12.142858"
       d="m 455,502.36218 a 12.142858,12.142858 0 1 1 -24.28571,0 12.142858,12.142858 0 1 1 24.28571,0 z" />
    <path
       transform="matrix(0.99836454,-0.05716856,0.05716856,0.99836454,-55.473865,139.98306)"
       sodipodi:type="arc"
       style="fill:#000000;fill-opacity:1;fill-rule:nonzero;stroke:none"
       id="path2989-4"
       sodipodi:cx="442.85715"
       sodipodi:cy="502.36218"
       sodipodi:rx="12.142858"
       sodipodi:ry="12.142858"
       d="m 455,502.36218 a 12.142858,12.142858 0 1 1 -24.28571,0 12.142858,12.142858 0 1 1 24.28571,0 z" />
    <path
       transform="matrix(0.99836454,-0.05716856,0.05716856,0.99836454,-91.494271,160.64752)"
       sodipodi:type="arc"
       style="fill:#000000;fill-opacity:1;fill-rule:nonzero;stroke:none"
       id="path2989-0"
       sodipodi:cx="442.85715"
       sodipodi:cy="502.36218"
       sodipodi:rx="12.142858"
       sodipodi:ry="12.142858"
       d="m 455,502.36218 a 12.142858,12.142858 0 1 1 -24.28571,0 12.142858,12.142858 0 1 1 24.28571,0 z" />
    <path
       transform="matrix(0.99836454,-0.05716856,0.05716856,0.99836454,-135.38088,168.8842)"
       sodipodi:type="arc"
       style="fill:#000000;fill-opacity:1;fill-rule:nonzero;stroke:none"
       id="path2989-9"
       sodipodi:cx="442.85715"
       sodipodi:cy="502.36218"
       sodipodi:rx="12.142858"
       sodipodi:ry="12.142858"
       d="m 455,502.36218 a 12.142858,12.142858 0 1 1 -24.28571,0 12.142858,12.142858 0 1 1 24.28571,0 z" />
    <path
       transform="matrix(0.99836454,-0.05716856,0.05716856,0.99836454,-174.05257,168.23682)"
       sodipodi:type="arc"
       style="fill:#000000;fill-opacity:1;fill-rule:nonzero;stroke:none"
       id="path2989-48"
       sodipodi:cx="442.85715"
       sodipodi:cy="502.36218"
       sodipodi:rx="12.142858"
       sodipodi:ry="12.142858"
       d="m 455,502.36218 a 12.142858,12.142858 0 1 1 -24.28571,0 12.142858,12.142858 0 1 1 24.28571,0 z" />
    <path
       transform="matrix(3.117647,0,0,3.117647,-1179.2436,-1065.2543)"
       sodipodi:type="arc"
       style="fill:#000000;fill-opacity:1;fill-rule:nonzero;stroke:none"
       id="path2989-8"
       sodipodi:cx="442.85715"
       sodipodi:cy="502.36218"
       sodipodi:rx="12.142858"
       sodipodi:ry="12.142858"
       d="m 455,502.36218 a 12.142858,12.142858 0 1 1 -24.28571,0 12.142858,12.142858 0 1 1 24.28571,0 z" />
    <path
       transform="matrix(3.117647,0,0,3.117647,-1052.1008,-1170.9687)"
       sodipodi:type="arc"
       style="fill:#000000;fill-opacity:1;fill-rule:nonzero;stroke:none"
       id="path2989-8-2"
       sodipodi:cx="442.85715"
       sodipodi:cy="502.36218"
       sodipodi:rx="12.142858"
       sodipodi:ry="12.142858"
       d="m 455,502.36218 a 12.142858,12.142858 0 1 1 -24.28571,0 12.142858,12.142858 0 1 1 24.28571,0 z"
       inkscape:transform-center-x="104.28571"
       inkscape:transform-center-y="107.14286" />
  </g>
</svg>
